<svg width="137" height="28" viewBox="0 0 137 28" fill="none" xmlns="http://www.w3.org/2000/svg">
<g id="logo" clip-path="url(#clip0)">
<g id="BUKEE">
<path d="M 49.9 4.1 C 52.2 4.1 54.1 4.5 55.4 5.5 C 56.7 6.4 57.3 7.7 57.3 9.5 C 57.3 10.5 57.1 11.3 56.6 12 C 56.1 12.7 55.4 13.3 54.5 13.7 C 55.7 13.9 56.6 14.5 57.2 15.3 C 57.8 16.1 58.1 17.1 58.1 18.2 C 58.1 20.1 57.4 21.6 56.2 22.5 C 54.9 23.5 53.1 24 50.8 24 H 41 V 21.6 L 43.2 21.2 V 6.9 L 41 6.5 V 4.1 H 43.2 H 49.9 Z M 47.1 15.2 V 20.9 H 50.8 C 51.9 20.9 52.7 20.7 53.2 20.3 C 53.8 19.8 54.1 19.1 54.1 18.2 C 54.1 17.2 53.8 16.5 53.4 16 C 52.9 15.5 52.1 15.2 51.1 15.2 H 47.1 Z M 47.1 12.4 H 50 C 51.1 12.4 51.9 12.2 52.5 11.8 C 53.1 11.3 53.3 10.7 53.3 9.9 C 53.3 8.9 53.1 8.3 52.5 7.8 C 51.9 7.4 51 7.2 49.9 7.2 H 47.1 V 12.4 Z M 67.6 4.1 V 6.5 L 65.4 6.9 V 17.3 C 65.4 18.6 65.8 19.6 66.5 20.3 C 67.2 20.9 68.2 21.2 69.4 21.2 C 70.6 21.2 71.6 20.9 72.3 20.3 C 73 19.6 73.4 18.6 73.4 17.3 V 6.9 L 71.3 6.5 V 4.1 H 79.5 V 6.5 L 77.4 6.9 V 17.3 C 77.4 19.5 76.7 21.3 75.2 22.5 C 73.7 23.7 71.8 24.3 69.4 24.3 C 67 24.3 65.1 23.7 63.6 22.5 C 62.2 21.3 61.4 19.5 61.4 17.3 V 6.9 L 59.3 6.5 V 4.1 H 61.4 H 65.4 H 67.6 Z M 80.7 21.6 L 82.8 21.2 V 6.9 L 80.7 6.5 V 4.1 H 88.8 V 6.5 L 86.8 6.9 V 12.2 H 88.6 L 92.4 6.7 L 91.2 6.5 V 4.1 H 99.1 V 6.5 L 96.9 6.9 L 92 13.4 L 97.5 21.3 L 99.5 21.6 V 24 H 91.7 V 21.6 L 92.9 21.4 L 89.1 15.7 H 86.8 V 21.2 L 88.8 21.6 V 24 H 80.7 V 21.6 Z" fill="white"/>
<path d="M 113.6 15.3 H 106.8 V 20.9 H 113.3 L 113.4 18.6 H 116.5 V 24 H 100.7 V 21.6 L 102.8 21.2 V 6.9 L 100.7 6.5 V 4.1 H 102.8 H 116.5 V 9.5 H 113.4 L 113.2 7.2 H 106.8 V 12.2 H 113.6 V 15.3 Z M 131.5 15.3 H 124.7 V 20.9 H 131.1 L 131.3 18.6 H 134.4 V 24 H 118.6 V 21.6 L 120.7 21.2 V 6.9 L 118.6 6.5 V 4.1 H 120.7 H 134.3 V 9.5 H 131.3 L 131.1 7.2 H 124.7 V 12.2 H 131.5 V 15.3 Z" fill="#65e496"/>
</g>
<g id="logo icon">
<path id="Rectangle 10 copy 3" fill-rule="evenodd" clip-rule="evenodd" d="M 28 28 L 0 0 H 28 V 28 Z" fill="#65e496"/>
<path id="Vector" fill-rule="evenodd" clip-rule="evenodd" d="M 28 0 L 0 28 V 0 H 28 Z" fill="#80809b"/>
</g>
</g>
<defs>
<clipPath id="clip0">
<rect width="137" height="28" fill="white"/>
</clipPath>
</defs>
</svg>
