<svg width="137" height="28" viewBox="0 0 137 28" fill="none" xmlns="http://www.w3.org/2000/svg">
<g id="logo" clip-path="url(#clip0)">
<g id="BUKEE">
<path d="M49.8828 4.09375C52.2253 4.09375 54.0527 4.54948 55.3652 5.46094C56.6777 6.3724 57.334 7.73503 57.334 9.54883C57.334 10.4694 57.0879 11.2943 56.5957 12.0234C56.1126 12.7435 55.4062 13.2858 54.4766 13.6504C55.6706 13.9056 56.5638 14.4525 57.1562 15.291C57.7578 16.1296 58.0586 17.1003 58.0586 18.2031C58.0586 20.1081 57.4297 21.5527 56.1719 22.5371C54.9141 23.5124 53.1322 24 50.8262 24H41.0371V21.6074L43.1562 21.1973V6.91016L41.0371 6.5V4.09375H43.1562H49.8828ZM47.1484 15.1953V20.9375H50.8262C51.8835 20.9375 52.6901 20.7096 53.2461 20.2539C53.8021 19.7891 54.0801 19.1055 54.0801 18.2031C54.0801 17.2279 53.8431 16.485 53.3691 15.9746C52.8952 15.4551 52.1478 15.1953 51.127 15.1953H47.1484ZM47.1484 12.4336H50.0195C51.0859 12.4336 51.9062 12.2148 52.4805 11.7773C53.0547 11.3398 53.3418 10.7018 53.3418 9.86328C53.3418 8.94271 53.0501 8.26367 52.4668 7.82617C51.8926 7.38867 51.0312 7.16992 49.8828 7.16992H47.1484V12.4336ZM67.5605 4.09375V6.5L65.4277 6.91016V17.3008C65.4277 18.6133 65.7786 19.5977 66.4805 20.2539C67.1914 20.901 68.1621 21.2246 69.3926 21.2246C70.6413 21.2246 71.6211 20.901 72.332 20.2539C73.043 19.6068 73.3984 18.6224 73.3984 17.3008V6.91016L71.2793 6.5V4.09375H79.5234V6.5L77.3906 6.91016V17.3008C77.3906 19.5339 76.6523 21.2565 75.1758 22.4688C73.7083 23.681 71.7806 24.2871 69.3926 24.2871C67.0137 24.2871 65.0905 23.681 63.623 22.4688C62.1647 21.2565 61.4355 19.5339 61.4355 17.3008V6.91016L59.3164 6.5V4.09375H61.4355H65.4277H67.5605ZM80.7129 21.6074L82.832 21.1973V6.91016L80.7129 6.5V4.09375H88.8477V6.5L86.8242 6.91016V12.2285H88.5605L92.3887 6.66406L91.2129 6.5V4.09375H99.1016V6.5L96.9414 6.86914L92.0469 13.4043L97.543 21.2656L99.5391 21.6074V24H91.6504V21.6074L92.8809 21.4434L89.0527 15.6875H86.8242V21.1973L88.8477 21.6074V24H80.7129V21.6074Z" fill="white"/>
<path d="M113.58 15.25H106.84V20.9375H113.266L113.443 18.5586H116.479V24H100.729V21.6074L102.848 21.1973V6.91016L100.729 6.5V4.09375H102.848H116.451V9.54883H113.389L113.211 7.16992H106.84V12.1738H113.58V15.25ZM131.463 15.25H124.723V20.9375H131.148L131.326 18.5586H134.361V24H118.611V21.6074L120.73 21.1973V6.91016L118.611 6.5V4.09375H120.73H134.334V9.54883H131.271L131.094 7.16992H124.723V12.1738H131.463V15.25Z" fill="#65E496"/>
</g>
<g id="logo icon">
<path id="Rectangle 10 copy 3" fill-rule="evenodd" clip-rule="evenodd" d="M28 28L0 0H28V28Z" fill="#65E496"/>
<path id="Vector" fill-rule="evenodd" clip-rule="evenodd" d="M28 0L0 28V0H28Z" fill="#44444F"/>
</g>
</g>
<defs>
<clipPath id="clip0">
<rect width="137" height="28" fill="white"/>
</clipPath>
</defs>
</svg>
